<svg width="64" height="64" viewBox="0 0 64 64" fill="none" xmlns="http://www.w3.org/2000/svg">
<path d="M31.9999 58.6663C46.7275 58.6663 58.6666 46.7273 58.6666 31.9997C58.6666 17.2721 46.7275 5.33301 31.9999 5.33301C17.2723 5.33301 5.33325 17.2721 5.33325 31.9997C5.33325 46.7273 17.2723 58.6663 31.9999 58.6663Z" stroke="#FFC149" stroke-width="5.33333" stroke-linecap="round" stroke-linejoin="round"/>
<path d="M31.3274 20.0324C25.0812 20.0324 20 25.1135 20 31.3598C20 37.6061 25.0812 42.6872 31.3274 42.6872C33.2369 42.6872 35.114 42.2341 36.6999 41.3603C36.8269 41.5132 36.9677 41.654 37.1206 41.781L40.357 45.0175C40.6559 45.3537 41.0203 45.6254 41.4279 45.8157C41.8355 46.006 42.2777 46.111 42.7274 46.1243C43.1771 46.1375 43.6247 46.0587 44.0428 45.8927C44.4609 45.7266 44.8407 45.4769 45.1588 45.1588C45.4769 44.8407 45.7266 44.4609 45.8927 44.0428C46.0587 43.6247 46.1375 43.1771 46.1243 42.7274C46.111 42.2777 46.006 41.8355 45.8157 41.4279C45.6254 41.0203 45.3537 40.6559 45.0175 40.357L41.781 37.1206C41.6234 36.9629 41.4499 36.8219 41.2632 36.6999C42.137 35.114 42.6872 33.2693 42.6872 31.3274C42.6872 25.0812 37.6061 20 31.3598 20L31.3274 20.0324ZM31.3274 23.2688C35.826 23.2688 39.4185 26.8612 39.4185 31.3598C39.4185 33.4958 38.6417 35.47 37.2824 36.9264C37.2501 36.9588 37.2177 36.9912 37.1853 37.0235C37.0325 37.1505 36.8916 37.2914 36.7646 37.4443C35.3406 38.7388 33.3987 39.4832 31.2951 39.4832C26.7965 39.4832 23.204 35.8908 23.204 31.3922C23.204 26.8936 26.7965 23.3011 31.2951 23.3011L31.3274 23.2688Z" fill="#FFC149"/>
</svg>
