<svg width="468" height="96" viewBox="0 0 468 96" fill="none" xmlns="http://www.w3.org/2000/svg">
<path d="M0 3C0 1.34315 1.34315 0 3 0H465C466.657 0 468 1.34315 468 3V48C468 74.5097 446.51 96 420 96H48C21.4903 96 0 74.5097 0 48V3Z" fill="url(#paint0_linear_212_33)"/>
<path d="M67.933 65H43.501C42.893 65 42.445 64.872 42.157 64.616C41.901 64.328 41.773 63.88 41.773 63.272V32.168C41.773 31.56 41.901 31.128 42.157 30.872C42.445 30.584 42.893 30.44 43.501 30.44H50.941C51.549 30.44 51.981 30.584 52.237 30.872C52.525 31.128 52.669 31.56 52.669 32.168V55.928H59.245V48.152C59.245 47.544 59.373 47.112 59.629 46.856C59.917 46.568 60.365 46.424 60.973 46.424H67.933C68.541 46.424 68.973 46.568 69.229 46.856C69.517 47.112 69.661 47.544 69.661 48.152V63.272C69.661 63.88 69.517 64.328 69.229 64.616C68.973 64.872 68.541 65 67.933 65ZM104.428 55.928C104.428 57.4 104.204 58.744 103.756 59.96C103.34 61.144 102.572 62.168 101.452 63.032C100.364 63.864 98.844 64.52 96.892 65C94.972 65.48 92.524 65.72 89.548 65.72C86.572 65.72 84.108 65.48 82.156 65C80.204 64.52 78.668 63.864 77.548 63.032C76.46 62.168 75.692 61.144 75.244 59.96C74.828 58.744 74.62 57.4 74.62 55.928V39.56C74.62 38.088 74.828 36.76 75.244 35.576C75.692 34.36 76.46 33.32 77.548 32.456C78.668 31.592 80.204 30.92 82.156 30.44C84.108 29.96 86.572 29.72 89.548 29.72C92.524 29.72 94.972 29.96 96.892 30.44C98.844 30.92 100.364 31.592 101.452 32.456C102.572 33.32 103.34 34.36 103.756 35.576C104.204 36.76 104.428 38.088 104.428 39.56V55.928ZM85.516 54.2C85.516 54.84 85.756 55.384 86.236 55.832C86.716 56.248 87.82 56.456 89.548 56.456C91.276 56.456 92.38 56.248 92.86 55.832C93.34 55.384 93.58 54.84 93.58 54.2V41.288C93.58 40.68 93.34 40.168 92.86 39.752C92.38 39.304 91.276 39.08 89.548 39.08C87.82 39.08 86.716 39.304 86.236 39.752C85.756 40.168 85.516 40.68 85.516 41.288V54.2ZM136.939 65H121.819C117.819 65 114.843 64.2 112.891 62.6C110.971 61 110.011 58.536 110.011 55.208V40.232C110.011 36.904 110.971 34.44 112.891 32.84C114.843 31.24 117.819 30.44 121.819 30.44H133.819C134.427 30.44 134.859 30.584 135.115 30.872C135.403 31.128 135.547 31.56 135.547 32.168V37.976C135.547 38.584 135.403 39.032 135.115 39.32C134.859 39.576 134.427 39.704 133.819 39.704H123.835C122.843 39.704 122.107 39.912 121.627 40.328C121.147 40.712 120.907 41.304 120.907 42.104V53.576C120.907 54.376 121.083 54.968 121.435 55.352C121.819 55.736 122.379 55.928 123.115 55.928H127.771V48.44C127.771 47.832 127.899 47.4 128.155 47.144C128.443 46.856 128.891 46.712 129.499 46.712H136.939C137.547 46.712 137.979 46.856 138.235 47.144C138.523 47.4 138.667 47.832 138.667 48.44V63.272C138.667 63.88 138.523 64.328 138.235 64.616C137.979 64.872 137.547 65 136.939 65ZM145.483 65C144.875 65 144.427 64.872 144.139 64.616C143.883 64.328 143.755 63.88 143.755 63.272V57.56C143.755 56.952 143.883 56.52 144.139 56.264C144.427 55.976 144.875 55.832 145.483 55.832H150.235V39.704H145.483C144.875 39.704 144.427 39.576 144.139 39.32C143.883 39.032 143.755 38.584 143.755 37.976V32.168C143.755 31.56 143.883 31.128 144.139 30.872C144.427 30.584 144.875 30.44 145.483 30.44H165.931C166.539 30.44 166.971 30.584 167.227 30.872C167.515 31.128 167.659 31.56 167.659 32.168V37.976C167.659 38.584 167.515 39.032 167.227 39.32C166.971 39.576 166.539 39.704 165.931 39.704H161.275V55.832H165.931C166.539 55.832 166.971 55.976 167.227 56.264C167.515 56.52 167.659 56.952 167.659 57.56V63.272C167.659 63.88 167.515 64.328 167.227 64.616C166.971 64.872 166.539 65 165.931 65H145.483ZM182.513 65H175.313C174.705 65 174.257 64.872 173.969 64.616C173.713 64.328 173.585 63.88 173.585 63.272V32.168C173.585 31.56 173.713 31.128 173.969 30.872C174.257 30.584 174.705 30.44 175.313 30.44H180.305C180.913 30.44 181.425 30.536 181.841 30.728C182.289 30.92 182.721 31.256 183.137 31.736L192.449 42.392V32.168C192.449 31.56 192.577 31.128 192.833 30.872C193.121 30.584 193.569 30.44 194.177 30.44H201.377C201.985 30.44 202.417 30.584 202.673 30.872C202.961 31.128 203.105 31.56 203.105 32.168V63.272C203.105 63.88 202.961 64.328 202.673 64.616C202.417 64.872 201.985 65 201.377 65H194.177C193.569 65 193.121 64.872 192.833 64.616C192.577 64.328 192.449 63.88 192.449 63.272V57.368L184.241 47.432V63.272C184.241 63.88 184.097 64.328 183.809 64.616C183.553 64.872 183.121 65 182.513 65ZM245.323 30.44H252.475C253.083 30.44 253.515 30.584 253.771 30.872C254.059 31.128 254.203 31.56 254.203 32.168V50.792C254.203 51.816 254.155 52.776 254.059 53.672C253.995 54.536 253.755 55.56 253.339 56.744L250.939 63.272C250.779 63.752 250.539 64.168 250.219 64.52C249.931 64.84 249.531 65 249.019 65H242.635C242.123 65 241.659 64.888 241.243 64.664C240.827 64.44 240.555 64.072 240.427 63.56L238.219 55.736C238.123 55.416 237.995 55.208 237.835 55.112C237.707 54.984 237.547 54.92 237.355 54.92H236.923C236.731 54.92 236.555 54.984 236.395 55.112C236.267 55.208 236.155 55.416 236.059 55.736L233.803 63.56C233.675 64.04 233.435 64.408 233.083 64.664C232.731 64.888 232.299 65 231.787 65H225.451C224.939 65 224.491 64.84 224.107 64.52C223.755 64.2 223.499 63.784 223.339 63.272L220.939 56.648C220.523 55.464 220.267 54.44 220.171 53.576C220.107 52.68 220.075 51.72 220.075 50.696V32.168C220.075 31.56 220.203 31.128 220.459 30.872C220.747 30.584 221.195 30.44 221.803 30.44H229.195C229.803 30.44 230.235 30.584 230.491 30.872C230.779 31.128 230.923 31.56 230.923 32.168V49.832L233.707 43.784C233.963 43.24 234.299 42.856 234.715 42.632C235.131 42.408 235.643 42.296 236.251 42.296H238.267C238.875 42.296 239.387 42.408 239.803 42.632C240.219 42.856 240.555 43.24 240.811 43.784L243.595 49.832V32.168C243.595 31.56 243.723 31.128 243.979 30.872C244.267 30.584 244.715 30.44 245.323 30.44ZM261.358 65C260.75 65 260.302 64.872 260.014 64.616C259.758 64.328 259.63 63.88 259.63 63.272V57.56C259.63 56.952 259.758 56.52 260.014 56.264C260.302 55.976 260.75 55.832 261.358 55.832H266.11V39.704H261.358C260.75 39.704 260.302 39.576 260.014 39.32C259.758 39.032 259.63 38.584 259.63 37.976V32.168C259.63 31.56 259.758 31.128 260.014 30.872C260.302 30.584 260.75 30.44 261.358 30.44H281.806C282.414 30.44 282.846 30.584 283.102 30.872C283.39 31.128 283.534 31.56 283.534 32.168V37.976C283.534 38.584 283.39 39.032 283.102 39.32C282.846 39.576 282.414 39.704 281.806 39.704H277.15V55.832H281.806C282.414 55.832 282.846 55.976 283.102 56.264C283.39 56.52 283.534 56.952 283.534 57.56V63.272C283.534 63.88 283.39 64.328 283.102 64.616C282.846 64.872 282.414 65 281.806 65H261.358ZM305.78 65H298.004C297.396 65 296.948 64.872 296.66 64.616C296.404 64.328 296.276 63.88 296.276 63.272V39.704H289.22C288.612 39.704 288.164 39.576 287.876 39.32C287.62 39.032 287.492 38.584 287.492 37.976V32.168C287.492 31.56 287.62 31.128 287.876 30.872C288.164 30.584 288.612 30.44 289.22 30.44H314.564C315.172 30.44 315.604 30.584 315.86 30.872C316.148 31.128 316.292 31.56 316.292 32.168V37.976C316.292 38.584 316.148 39.032 315.86 39.32C315.604 39.576 315.172 39.704 314.564 39.704H307.508V63.272C307.508 63.88 307.364 64.328 307.076 64.616C306.82 64.872 306.388 65 305.78 65ZM330.128 65H322.688C322.08 65 321.632 64.872 321.344 64.616C321.088 64.328 320.96 63.88 320.96 63.272V32.168C320.96 31.56 321.088 31.128 321.344 30.872C321.632 30.584 322.08 30.44 322.688 30.44H330.128C330.736 30.44 331.168 30.584 331.424 30.872C331.712 31.128 331.856 31.56 331.856 32.168V42.584H339.872V32.168C339.872 31.56 340 31.128 340.256 30.872C340.544 30.584 340.992 30.44 341.6 30.44H349.04C349.648 30.44 350.08 30.584 350.336 30.872C350.624 31.128 350.768 31.56 350.768 32.168V63.272C350.768 63.88 350.624 64.328 350.336 64.616C350.08 64.872 349.648 65 349.04 65H341.6C340.992 65 340.544 64.872 340.256 64.616C340 64.328 339.872 63.88 339.872 63.272V52.616H331.856V63.272C331.856 63.88 331.712 64.328 331.424 64.616C331.168 64.872 330.736 65 330.128 65ZM384.724 56.984H376.612C373.508 56.984 371.268 56.344 369.892 55.064C368.548 53.752 367.876 51.736 367.876 49.016V32.168C367.876 31.56 368.004 31.128 368.26 30.872C368.548 30.584 368.996 30.44 369.604 30.44H377.044C377.652 30.44 378.084 30.584 378.34 30.872C378.628 31.128 378.772 31.56 378.772 32.168V45.32C378.772 45.832 378.9 46.232 379.156 46.52C379.444 46.808 379.812 46.952 380.26 46.952H384.724V32.168C384.724 31.56 384.852 31.128 385.108 30.872C385.396 30.584 385.844 30.44 386.452 30.44H393.844C394.452 30.44 394.884 30.584 395.14 30.872C395.428 31.128 395.572 31.56 395.572 32.168V63.272C395.572 63.88 395.428 64.328 395.14 64.616C394.884 64.872 394.452 65 393.844 65H386.452C385.844 65 385.396 64.872 385.108 64.616C384.852 64.328 384.724 63.88 384.724 63.272V56.984ZM425.379 65H402.531C401.923 65 401.475 64.872 401.187 64.616C400.931 64.328 400.803 63.88 400.803 63.272V55.016C400.803 53.16 400.979 51.64 401.331 50.456C401.715 49.24 402.243 48.248 402.915 47.48C403.587 46.712 404.387 46.104 405.315 45.656C406.243 45.208 407.251 44.824 408.339 44.504L414.771 42.488C415.283 42.36 415.619 42.168 415.779 41.912C415.971 41.656 416.067 41.272 416.067 40.76C416.067 40.28 415.971 39.96 415.779 39.8C415.587 39.608 415.251 39.512 414.771 39.512H404.355C403.747 39.512 403.299 39.384 403.011 39.128C402.755 38.84 402.627 38.392 402.627 37.784V32.168C402.627 31.56 402.755 31.128 403.011 30.872C403.299 30.584 403.747 30.44 404.355 30.44H418.515C421.235 30.44 423.315 31.128 424.755 32.504C426.227 33.848 426.963 35.816 426.963 38.408V42.92C426.963 45.32 426.291 47.16 424.947 48.44C423.603 49.72 421.779 50.712 419.475 51.416L412.947 53.48C412.467 53.608 412.131 53.752 411.939 53.912C411.779 54.072 411.699 54.408 411.699 54.92V55.928H425.379C425.987 55.928 426.419 56.072 426.675 56.36C426.963 56.616 427.107 57.048 427.107 57.656V63.272C427.107 63.88 426.963 64.328 426.675 64.616C426.419 64.872 425.987 65 425.379 65Z" fill="#362D25"/>
<defs>
<linearGradient id="paint0_linear_212_33" x1="234" y1="96" x2="234" y2="-1.43051e-06" gradientUnits="userSpaceOnUse">
<stop stop-color="#DCC0A6"/>
<stop offset="1" stop-color="#FFC149"/>
</linearGradient>
</defs>
</svg>
