<svg width="48" height="48" viewBox="0 0 48 48" fill="none" xmlns="http://www.w3.org/2000/svg">
<path d="M24 44C35.0457 44 44 35.0457 44 24C44 12.9543 35.0457 4 24 4C12.9543 4 4 12.9543 4 24C4 35.0457 12.9543 44 24 44Z" stroke="#FFC149" stroke-width="2" stroke-linecap="round" stroke-linejoin="round"/>
<path d="M18.1799 18.0002C18.6501 16.6635 19.5782 15.5364 20.7998 14.8184C22.0214 14.1005 23.4577 13.838 24.8543 14.0776C26.2508 14.3171 27.5176 15.0432 28.4301 16.1272C29.3426 17.2112 29.842 18.5832 29.8399 20.0002C29.8399 24.0002 23.8399 26.0002 23.8399 26.0002" stroke="#FFC149" stroke-width="2" stroke-linecap="round" stroke-linejoin="round"/>
<path d="M24 34H24.02" stroke="#FFC149" stroke-width="2" stroke-linecap="round" stroke-linejoin="round"/>
</svg>
