<svg width="48" height="48" viewBox="0 0 48 48" fill="none" xmlns="http://www.w3.org/2000/svg">
<path d="M21 41L41 21C41.9346 20.0842 42.6783 18.9921 43.1882 17.787C43.698 16.582 43.964 15.2878 43.9706 13.9793C43.9772 12.6708 43.7244 11.374 43.2267 10.1638C42.729 8.95368 41.9963 7.85419 41.0711 6.92894C40.1458 6.00369 39.0463 5.27104 37.8362 4.77335C36.626 4.27566 35.3292 4.02281 34.0207 4.02942C32.7122 4.03603 31.418 4.30197 30.213 4.81185C29.0079 5.32174 27.9159 6.06546 27 7.00001L7.00001 27C6.06546 27.9159 5.32174 29.0079 4.81185 30.213C4.30197 31.418 4.03603 32.7122 4.02942 34.0207C4.02281 35.3292 4.27566 36.626 4.77335 37.8362C5.27104 39.0463 6.00369 40.1458 6.92894 41.0711C7.85419 41.9963 8.95368 42.729 10.1638 43.2267C11.374 43.7244 12.6708 43.9772 13.9793 43.9706C15.2878 43.964 16.582 43.698 17.787 43.1882C18.9921 42.6783 20.0842 41.9346 21 41Z" stroke="#F08538" stroke-width="2" stroke-linecap="round" stroke-linejoin="round"/>
<path d="M17 17L31 31" stroke="#F08538" stroke-width="2" stroke-linecap="round" stroke-linejoin="round"/>
</svg>
