<svg width="64" height="64" viewBox="0 0 64 64" fill="none" xmlns="http://www.w3.org/2000/svg">
<path d="M42.6668 55.9998V50.6664C42.6668 47.8374 41.543 45.1243 39.5426 43.124C37.5422 41.1236 34.8291 39.9998 32.0002 39.9998H16.0002C13.1712 39.9998 10.4581 41.1236 8.45769 43.124C6.4573 45.1243 5.3335 47.8374 5.3335 50.6664V55.9998" stroke="#362D25" stroke-width="6" stroke-linecap="round" stroke-linejoin="round"/>
<path d="M23.9997 29.3336C29.8907 29.3336 34.6663 24.5579 34.6663 18.6669C34.6663 12.7759 29.8907 8.00024 23.9997 8.00024C18.1086 8.00024 13.333 12.7759 13.333 18.6669C13.333 24.5579 18.1086 29.3336 23.9997 29.3336Z" stroke="#362D25" stroke-width="6" stroke-linecap="round" stroke-linejoin="round"/>
<path d="M58.666 56.0003V50.6669C58.6643 48.3035 57.8776 46.0076 56.4297 44.1398C54.9817 42.2719 52.9544 40.9378 50.666 40.3469" stroke="#362D25" stroke-width="6" stroke-linecap="round" stroke-linejoin="round"/>
<path d="M42.6665 8.34668C44.9609 8.93415 46.9946 10.2685 48.4469 12.1395C49.8991 14.0105 50.6874 16.3116 50.6874 18.68C50.6874 21.0485 49.8991 23.3496 48.4469 25.2205C46.9946 27.0915 44.9609 28.4259 42.6665 29.0133" stroke="#362D25" stroke-width="6" stroke-linecap="round" stroke-linejoin="round"/>
</svg>
