<svg width="72" height="72" viewBox="0 0 72 72" fill="none" xmlns="http://www.w3.org/2000/svg">
<path d="M42 27C42 28.5913 41.3679 30.1174 40.2426 31.2426C39.1174 32.3679 37.5913 33 36 33H18L6 45V12C6 8.7 8.7 6 12 6H36C37.5913 6 39.1174 6.63214 40.2426 7.75736C41.3679 8.88258 42 10.4087 42 12V27Z" stroke="#362D25" stroke-width="6" stroke-linecap="round" stroke-linejoin="round"/>
<path d="M54 27H60C61.5913 27 63.1174 27.6321 64.2426 28.7574C65.3679 29.8826 66 31.4087 66 33V66L54 54H36C34.4087 54 32.8826 53.3679 31.7574 52.2426C30.6321 51.1174 30 49.5913 30 48V45" stroke="#362D25" stroke-width="6" stroke-linecap="round" stroke-linejoin="round"/>
</svg>
