<svg width="72" height="72" viewBox="0 0 72 72" fill="none" xmlns="http://www.w3.org/2000/svg">
<path d="M36.66 6H35.34C33.7487 6 32.2226 6.63214 31.0974 7.75736C29.9721 8.88258 29.34 10.4087 29.34 12V12.54C29.3389 13.5922 29.0612 14.6256 28.5346 15.5365C28.0081 16.4475 27.2512 17.2039 26.34 17.73L25.05 18.48C24.1379 19.0066 23.1032 19.2838 22.05 19.2838C20.9968 19.2838 19.9621 19.0066 19.05 18.48L18.6 18.24C17.2232 17.4458 15.5875 17.2303 14.052 17.6409C12.5165 18.0515 11.2067 19.0546 10.41 20.43L9.75001 21.57C8.95579 22.9468 8.74034 24.5825 9.15093 26.118C9.56152 27.6535 10.5646 28.9633 11.94 29.76L12.39 30.06C13.2968 30.5835 14.0509 31.3353 14.5772 32.2405C15.1035 33.1457 15.3837 34.1729 15.39 35.22V36.75C15.3942 37.8073 15.119 38.8469 14.5921 39.7635C14.0653 40.6802 13.3056 41.4414 12.39 41.97L11.94 42.24C10.5646 43.0367 9.56152 44.3465 9.15093 45.882C8.74034 47.4175 8.95579 49.0532 9.75001 50.43L10.41 51.57C11.2067 52.9454 12.5165 53.9485 14.052 54.3591C15.5875 54.7697 17.2232 54.5542 18.6 53.76L19.05 53.52C19.9621 52.9934 20.9968 52.7162 22.05 52.7162C23.1032 52.7162 24.1379 52.9934 25.05 53.52L26.34 54.27C27.2512 54.7961 28.0081 55.5525 28.5346 56.4635C29.0612 57.3744 29.3389 58.4078 29.34 59.46V60C29.34 61.5913 29.9721 63.1174 31.0974 64.2426C32.2226 65.3679 33.7487 66 35.34 66H36.66C38.2513 66 39.7774 65.3679 40.9026 64.2426C42.0279 63.1174 42.66 61.5913 42.66 60V59.46C42.6611 58.4078 42.9388 57.3744 43.4654 56.4635C43.9919 55.5525 44.7488 54.7961 45.66 54.27L46.95 53.52C47.8621 52.9934 48.8968 52.7162 49.95 52.7162C51.0032 52.7162 52.0379 52.9934 52.95 53.52L53.4 53.76C54.7768 54.5542 56.4125 54.7697 57.948 54.3591C59.4835 53.9485 60.7934 52.9454 61.59 51.57L62.25 50.4C63.0442 49.0232 63.2597 47.3875 62.8491 45.852C62.4385 44.3165 61.4354 43.0067 60.06 42.21L59.61 41.97C58.6944 41.4414 57.9347 40.6802 57.4079 39.7635C56.8811 38.8469 56.6058 37.8073 56.61 36.75V35.25C56.6058 34.1927 56.8811 33.1531 57.4079 32.2365C57.9347 31.3198 58.6944 30.5586 59.61 30.03L60.06 29.76C61.4354 28.9633 62.4385 27.6535 62.8491 26.118C63.2597 24.5825 63.0442 22.9468 62.25 21.57L61.59 20.43C60.7934 19.0546 59.4835 18.0515 57.948 17.6409C56.4125 17.2303 54.7768 17.4458 53.4 18.24L52.95 18.48C52.0379 19.0066 51.0032 19.2838 49.95 19.2838C48.8968 19.2838 47.8621 19.0066 46.95 18.48L45.66 17.73C44.7488 17.2039 43.9919 16.4475 43.4654 15.5365C42.9388 14.6256 42.6611 13.5922 42.66 12.54V12C42.66 10.4087 42.0279 8.88258 40.9026 7.75736C39.7774 6.63214 38.2513 6 36.66 6Z" stroke="#362D25" stroke-width="6" stroke-linecap="round" stroke-linejoin="round"/>
<path d="M36 45C40.9706 45 45 40.9706 45 36C45 31.0294 40.9706 27 36 27C31.0294 27 27 31.0294 27 36C27 40.9706 31.0294 45 36 45Z" stroke="#362D25" stroke-width="6" stroke-linecap="round" stroke-linejoin="round"/>
</svg>
