<svg width="64" height="64" viewBox="0 0 64 64" fill="none" xmlns="http://www.w3.org/2000/svg">
<path d="M32.0002 58.6654C46.7278 58.6654 58.6668 46.7263 58.6668 31.9987C58.6668 17.2711 46.7278 5.33203 32.0002 5.33203C17.2726 5.33203 5.3335 17.2711 5.3335 31.9987C5.3335 46.7263 17.2726 58.6654 32.0002 58.6654Z" stroke="#FFC149" stroke-width="6" stroke-linecap="round" stroke-linejoin="round"/>
<path d="M32.5144 21C26.1815 21 21 26.1815 21 32.5144C21 38.8473 26.1815 44.0288 32.5144 44.0288C35.6809 44.0288 38.617 42.791 40.6896 40.6896L38.617 38.617C37.0626 40.1714 34.9036 41.1502 32.4856 41.1502C27.7071 41.1502 23.8498 37.2928 23.8498 32.5144C23.8498 27.7359 27.7071 23.8786 32.4856 23.8786C34.8748 23.8786 36.9474 24.9149 38.5019 26.4981L35.3642 29.6358H44V21L40.5745 24.4255C38.5019 22.3529 35.6521 21 32.4856 21H32.5144Z" fill="#FFC149"/>
</svg>
