<svg width="72" height="72" viewBox="0 0 72 72" fill="none" xmlns="http://www.w3.org/2000/svg">
<path d="M36 66C52.5685 66 66 52.5685 66 36C66 19.4315 52.5685 6 36 6C19.4315 6 6 19.4315 6 36C6 52.5685 19.4315 66 36 66Z" stroke="#362D25" stroke-width="6" stroke-linecap="round" stroke-linejoin="round"/>
<path d="M35.5194 21C26.9837 21 20 27.9837 20 36.5194C20 45.055 26.9837 52.0388 35.5194 52.0388C39.7872 52.0388 43.7447 50.3704 46.5382 47.5382L43.7447 44.7447C41.6496 46.8398 38.7397 48.1589 35.4806 48.1589C29.0401 48.1589 23.8411 42.9599 23.8411 36.5194C23.8411 30.0788 29.0401 24.8798 35.4806 24.8798C38.7009 24.8798 41.4944 26.2766 43.5895 28.4105L39.3605 32.6395H51V21L46.383 25.617C43.5895 22.8235 39.7484 21 35.4806 21H35.5194Z" fill="black"/>
</svg>
