<svg width="72" height="72" viewBox="0 0 72 72" fill="none" xmlns="http://www.w3.org/2000/svg">
<path d="M36 66C52.5685 66 66 52.5685 66 36C66 19.4315 52.5685 6 36 6C19.4315 6 6 19.4315 6 36C6 52.5685 19.4315 66 36 66Z" stroke="#362D25" stroke-width="6" stroke-linecap="round" stroke-linejoin="round"/>
<path d="M36 39C40.9706 39 45 34.9706 45 30C45 25.0294 40.9706 21 36 21C31.0294 21 27 25.0294 27 30C27 34.9706 31.0294 39 36 39Z" stroke="#362D25" stroke-width="6" stroke-linecap="round" stroke-linejoin="round"/>
<path d="M21 61.986V57C21 55.4087 21.6321 53.8826 22.7574 52.7574C23.8826 51.6321 25.4087 51 27 51H45C46.5913 51 48.1174 51.6321 49.2426 52.7574C50.3679 53.8826 51 55.4087 51 57V61.986" stroke="#362D25" stroke-width="6" stroke-linecap="round" stroke-linejoin="round"/>
</svg>
