<svg width="64" height="64" viewBox="0 0 64 64" fill="none" xmlns="http://www.w3.org/2000/svg">
<path d="M23.9999 36.6654C26.5772 36.6654 28.6666 34.576 28.6666 31.9987C28.6666 29.4214 26.5772 27.332 23.9999 27.332C21.4226 27.332 19.3333 29.4214 19.3333 31.9987C19.3333 34.576 21.4226 36.6654 23.9999 36.6654Z" stroke="#F08538" stroke-width="4" stroke-linecap="round" stroke-linejoin="round"/>
<path d="M39.9997 36.6654C42.577 36.6654 44.6663 34.576 44.6663 31.9987C44.6663 29.4214 42.577 27.332 39.9997 27.332C37.4223 27.332 35.333 29.4214 35.333 31.9987C35.333 34.576 37.4223 36.6654 39.9997 36.6654Z" stroke="#F08538" stroke-width="4" stroke-linecap="round" stroke-linejoin="round"/>
<path d="M21.3333 53.332V58.6654H42.6666V53.332" stroke="#F08538" stroke-width="6" stroke-linecap="round" stroke-linejoin="round"/>
<path d="M33.3332 45.3346L31.9998 42.668L30.6665 45.3346H33.3332Z" stroke="#F08538" stroke-width="6" stroke-linecap="round" stroke-linejoin="round"/>
<path d="M42.667 53.334C43.6715 53.3334 44.6554 53.0491 45.5055 52.5138C46.3555 51.9786 47.0371 51.2142 47.4718 50.3086C47.9065 49.403 48.0766 48.393 47.9625 47.395C47.8484 46.397 47.4548 45.4515 46.827 44.6673C49.8829 41.7134 51.9869 37.9141 52.8691 33.7565C53.7512 29.5988 53.3714 25.2725 51.7784 21.3321C50.1853 17.3918 47.4515 14.0172 43.9277 11.6409C40.4038 9.26464 36.2505 7.99512 32.0003 7.99512C27.7501 7.99512 23.5968 9.26464 20.073 11.6409C16.5491 14.0172 13.8154 17.3918 12.2223 21.3321C10.6292 25.2725 10.2494 29.5988 11.1316 33.7565C12.0138 37.9141 14.1177 41.7134 17.1737 44.6673C16.5458 45.4515 16.1522 46.397 16.0382 47.395C15.9241 48.393 16.0942 49.403 16.5289 50.3086C16.9636 51.2142 17.6452 51.9786 18.4952 52.5138C19.3452 53.0491 20.3292 53.3334 21.3337 53.334" stroke="#F08538" stroke-width="6" stroke-linecap="round" stroke-linejoin="round"/>
</svg>
