<svg width="1152" height="244" viewBox="0 0 1152 244" fill="none" xmlns="http://www.w3.org/2000/svg">
<g filter="url(#filter0_d_209_32)">
<path d="M139.942 175.52L137.686 182.816H145.222L142.966 175.52C142.838 175.232 142.694 175.024 142.534 174.896C142.406 174.768 142.246 174.704 142.054 174.704H140.854C140.662 174.704 140.486 174.768 140.326 174.896C140.198 175.024 140.07 175.232 139.942 175.52ZM137.206 198.272C137.206 198.88 137.062 199.328 136.774 199.616C136.518 199.872 136.086 200 135.478 200H128.422C127.814 200 127.366 199.872 127.078 199.616C126.822 199.328 126.694 198.88 126.694 198.272V185.6C126.694 184.64 126.838 183.536 127.126 182.288C127.446 181.04 127.926 179.584 128.566 177.92L132.742 167.024C132.934 166.48 133.222 166.08 133.606 165.824C134.022 165.568 134.55 165.44 135.19 165.44H148.102C148.71 165.44 149.206 165.568 149.59 165.824C150.006 166.08 150.31 166.48 150.502 167.024L154.678 177.92C155.318 179.584 155.782 181.04 156.07 182.288C156.39 183.536 156.55 184.64 156.55 185.6V198.272C156.55 198.88 156.406 199.328 156.118 199.616C155.862 199.872 155.43 200 154.822 200H147.574C146.934 200 146.454 199.872 146.134 199.616C145.846 199.328 145.702 198.88 145.702 198.272V191.552H137.206V198.272ZM188.874 200H181.098C180.49 200 180.042 199.872 179.754 199.616C179.498 199.328 179.37 198.88 179.37 198.272V174.704H172.314C171.706 174.704 171.258 174.576 170.97 174.32C170.714 174.032 170.586 173.584 170.586 172.976V167.168C170.586 166.56 170.714 166.128 170.97 165.872C171.258 165.584 171.706 165.44 172.314 165.44H197.658C198.266 165.44 198.698 165.584 198.954 165.872C199.242 166.128 199.386 166.56 199.386 167.168V172.976C199.386 173.584 199.242 174.032 198.954 174.32C198.698 174.576 198.266 174.704 197.658 174.704H190.602V198.272C190.602 198.88 190.458 199.328 190.17 199.616C189.914 199.872 189.482 200 188.874 200ZM214.902 174.08V180.224H218.502C219.334 180.224 219.894 180.016 220.182 179.6C220.47 179.152 220.614 178.608 220.614 177.968V176.336C220.614 175.696 220.47 175.168 220.182 174.752C219.894 174.304 219.334 174.08 218.502 174.08H214.902ZM213.174 200H205.782C205.174 200 204.726 199.872 204.438 199.616C204.182 199.328 204.054 198.88 204.054 198.272V167.168C204.054 166.56 204.182 166.128 204.438 165.872C204.726 165.584 205.174 165.44 205.782 165.44H221.766C225.35 165.44 227.814 166.192 229.158 167.696C230.534 169.168 231.222 171.088 231.222 173.456V175.664C231.222 177.008 231.014 178.16 230.598 179.12C230.214 180.048 229.526 180.72 228.534 181.136C230.262 181.328 231.654 182.032 232.71 183.248C233.798 184.464 234.342 186.08 234.342 188.096V198.272C234.342 198.88 234.198 199.328 233.91 199.616C233.654 199.872 233.222 200 232.614 200H225.174C224.566 200 224.118 199.872 223.83 199.616C223.574 199.328 223.446 198.88 223.446 198.272V190.928C223.446 190.224 223.302 189.712 223.014 189.392C222.758 189.04 222.294 188.864 221.622 188.864H214.902V198.272C214.902 198.88 214.758 199.328 214.47 199.616C214.214 199.872 213.782 200 213.174 200ZM252.254 175.52L249.998 182.816H257.534L255.278 175.52C255.15 175.232 255.006 175.024 254.846 174.896C254.718 174.768 254.558 174.704 254.366 174.704H253.166C252.974 174.704 252.798 174.768 252.638 174.896C252.51 175.024 252.382 175.232 252.254 175.52ZM249.518 198.272C249.518 198.88 249.374 199.328 249.086 199.616C248.83 199.872 248.398 200 247.79 200H240.734C240.126 200 239.678 199.872 239.39 199.616C239.134 199.328 239.006 198.88 239.006 198.272V185.6C239.006 184.64 239.15 183.536 239.438 182.288C239.758 181.04 240.238 179.584 240.878 177.92L245.054 167.024C245.246 166.48 245.534 166.08 245.918 165.824C246.334 165.568 246.862 165.44 247.502 165.44H260.414C261.022 165.44 261.518 165.568 261.902 165.824C262.318 166.08 262.622 166.48 262.814 167.024L266.99 177.92C267.63 179.584 268.094 181.04 268.382 182.288C268.702 183.536 268.862 184.64 268.862 185.6V198.272C268.862 198.88 268.718 199.328 268.43 199.616C268.174 199.872 267.742 200 267.134 200H259.886C259.246 200 258.766 199.872 258.446 199.616C258.158 199.328 258.014 198.88 258.014 198.272V191.552H249.518V198.272ZM283.717 200H276.517C275.909 200 275.461 199.872 275.173 199.616C274.917 199.328 274.789 198.88 274.789 198.272V167.168C274.789 166.56 274.917 166.128 275.173 165.872C275.461 165.584 275.909 165.44 276.517 165.44H281.509C282.117 165.44 282.629 165.536 283.045 165.728C283.493 165.92 283.925 166.256 284.341 166.736L293.653 177.392V167.168C293.653 166.56 293.781 166.128 294.037 165.872C294.325 165.584 294.773 165.44 295.381 165.44H302.581C303.189 165.44 303.621 165.584 303.877 165.872C304.165 166.128 304.309 166.56 304.309 167.168V198.272C304.309 198.88 304.165 199.328 303.877 199.616C303.621 199.872 303.189 200 302.581 200H295.381C294.773 200 294.325 199.872 294.037 199.616C293.781 199.328 293.653 198.88 293.653 198.272V192.368L285.445 182.432V198.272C285.445 198.88 285.301 199.328 285.013 199.616C284.757 199.872 284.325 200 283.717 200ZM326.961 200H311.793C311.185 200 310.737 199.872 310.449 199.616C310.193 199.328 310.065 198.88 310.065 198.272V192.656C310.065 192.048 310.193 191.616 310.449 191.36C310.737 191.072 311.185 190.928 311.793 190.928H324.705C325.121 190.928 325.425 190.8 325.617 190.544C325.841 190.256 325.953 189.92 325.953 189.536C325.953 188.992 325.841 188.592 325.617 188.336C325.425 188.08 325.121 187.936 324.705 187.904L317.505 186.896C315.265 186.576 313.457 185.84 312.081 184.688C310.737 183.536 310.065 181.616 310.065 178.928V173.888C310.065 171.168 310.945 169.088 312.705 167.648C314.465 166.176 316.897 165.44 320.001 165.44H333.441C334.049 165.44 334.481 165.584 334.737 165.872C335.025 166.128 335.169 166.56 335.169 167.168V172.88C335.169 173.488 335.025 173.936 334.737 174.224C334.481 174.48 334.049 174.608 333.441 174.608H322.257C321.841 174.608 321.521 174.752 321.297 175.04C321.073 175.296 320.961 175.632 320.961 176.048C320.961 176.464 321.073 176.816 321.297 177.104C321.521 177.392 321.841 177.552 322.257 177.584L329.409 178.544C331.649 178.864 333.457 179.6 334.833 180.752C336.209 181.904 336.897 183.824 336.897 186.512V191.552C336.897 194.272 336.001 196.368 334.209 197.84C332.449 199.28 330.033 200 326.961 200ZM365.14 200H353.428C349.428 200 346.452 199.2 344.5 197.6C342.58 196 341.62 193.536 341.62 190.208V175.28C341.62 171.952 342.58 169.488 344.5 167.888C346.452 166.256 349.428 165.44 353.428 165.44H365.14C365.748 165.44 366.18 165.584 366.436 165.872C366.724 166.128 366.868 166.56 366.868 167.168V172.976C366.868 173.584 366.724 174.032 366.436 174.32C366.18 174.576 365.748 174.704 365.14 174.704H355.492C354.5 174.704 353.764 174.912 353.284 175.328C352.804 175.712 352.564 176.304 352.564 177.104V188.528C352.564 189.328 352.804 189.92 353.284 190.304C353.764 190.656 354.5 190.832 355.492 190.832H365.14C365.748 190.832 366.18 190.976 366.436 191.264C366.724 191.52 366.868 191.952 366.868 192.56V198.272C366.868 198.88 366.724 199.328 366.436 199.616C366.18 199.872 365.748 200 365.14 200ZM396.289 200H374.017C373.409 200 372.961 199.872 372.673 199.616C372.417 199.328 372.289 198.88 372.289 198.272V167.168C372.289 166.56 372.417 166.128 372.673 165.872C372.961 165.584 373.409 165.44 374.017 165.44H396.289C396.897 165.44 397.329 165.584 397.585 165.872C397.873 166.128 398.017 166.56 398.017 167.168V172.784C398.017 173.392 397.873 173.84 397.585 174.128C397.329 174.384 396.897 174.512 396.289 174.512H383.041V178.208H392.401C393.009 178.208 393.441 178.352 393.697 178.64C393.985 178.896 394.129 179.328 394.129 179.936V185.072C394.129 185.68 393.985 186.128 393.697 186.416C393.441 186.672 393.009 186.8 392.401 186.8H383.041V190.928H396.289C396.897 190.928 397.329 191.072 397.585 191.36C397.873 191.616 398.017 192.048 398.017 192.656V198.272C398.017 198.88 397.873 199.328 397.585 199.616C397.329 199.872 396.897 200 396.289 200ZM412.623 200H405.423C404.815 200 404.367 199.872 404.079 199.616C403.823 199.328 403.695 198.88 403.695 198.272V167.168C403.695 166.56 403.823 166.128 404.079 165.872C404.367 165.584 404.815 165.44 405.423 165.44H410.415C411.023 165.44 411.535 165.536 411.951 165.728C412.399 165.92 412.831 166.256 413.247 166.736L422.559 177.392V167.168C422.559 166.56 422.687 166.128 422.943 165.872C423.231 165.584 423.679 165.44 424.287 165.44H431.487C432.095 165.44 432.527 165.584 432.783 165.872C433.071 166.128 433.215 166.56 433.215 167.168V198.272C433.215 198.88 433.071 199.328 432.783 199.616C432.527 199.872 432.095 200 431.487 200H424.287C423.679 200 423.231 199.872 422.943 199.616C422.687 199.328 422.559 198.88 422.559 198.272V192.368L414.351 182.432V198.272C414.351 198.88 414.207 199.328 413.919 199.616C413.663 199.872 413.231 200 412.623 200ZM457.739 200H441.563C440.955 200 440.507 199.872 440.219 199.616C439.963 199.328 439.835 198.88 439.835 198.272V167.168C439.835 166.56 439.963 166.128 440.219 165.872C440.507 165.584 440.955 165.44 441.563 165.44H457.739C461.739 165.44 464.699 166.24 466.619 167.84C468.571 169.44 469.547 171.904 469.547 175.232V190.208C469.547 193.536 468.571 196 466.619 197.6C464.699 199.2 461.739 200 457.739 200ZM450.731 174.608V190.928H456.443C457.211 190.928 457.771 190.736 458.123 190.352C458.507 189.968 458.699 189.376 458.699 188.576V176.912C458.699 176.112 458.507 175.536 458.123 175.184C457.771 174.8 457.211 174.608 456.443 174.608H450.731ZM499.648 200H477.376C476.768 200 476.32 199.872 476.032 199.616C475.776 199.328 475.648 198.88 475.648 198.272V167.168C475.648 166.56 475.776 166.128 476.032 165.872C476.32 165.584 476.768 165.44 477.376 165.44H499.648C500.256 165.44 500.688 165.584 500.944 165.872C501.232 166.128 501.376 166.56 501.376 167.168V172.784C501.376 173.392 501.232 173.84 500.944 174.128C500.688 174.384 500.256 174.512 499.648 174.512H486.4V178.208H495.76C496.368 178.208 496.8 178.352 497.056 178.64C497.344 178.896 497.488 179.328 497.488 179.936V185.072C497.488 185.68 497.344 186.128 497.056 186.416C496.8 186.672 496.368 186.8 495.76 186.8H486.4V190.928H499.648C500.256 190.928 500.688 191.072 500.944 191.36C501.232 191.616 501.376 192.048 501.376 192.656V198.272C501.376 198.88 501.232 199.328 500.944 199.616C500.688 199.872 500.256 200 499.648 200ZM515.982 200H508.782C508.174 200 507.726 199.872 507.438 199.616C507.182 199.328 507.054 198.88 507.054 198.272V167.168C507.054 166.56 507.182 166.128 507.438 165.872C507.726 165.584 508.174 165.44 508.782 165.44H513.774C514.382 165.44 514.894 165.536 515.31 165.728C515.758 165.92 516.19 166.256 516.606 166.736L525.918 177.392V167.168C525.918 166.56 526.046 166.128 526.302 165.872C526.59 165.584 527.038 165.44 527.646 165.44H534.846C535.454 165.44 535.886 165.584 536.142 165.872C536.43 166.128 536.574 166.56 536.574 167.168V198.272C536.574 198.88 536.43 199.328 536.142 199.616C535.886 199.872 535.454 200 534.846 200H527.646C527.038 200 526.59 199.872 526.302 199.616C526.046 199.328 525.918 198.88 525.918 198.272V192.368L517.71 182.432V198.272C517.71 198.88 517.566 199.328 517.278 199.616C517.022 199.872 516.59 200 515.982 200ZM566.187 200H554.475C550.475 200 547.499 199.2 545.547 197.6C543.627 196 542.667 193.536 542.667 190.208V175.28C542.667 171.952 543.627 169.488 545.547 167.888C547.499 166.256 550.475 165.44 554.475 165.44H566.187C566.795 165.44 567.227 165.584 567.483 165.872C567.771 166.128 567.915 166.56 567.915 167.168V172.976C567.915 173.584 567.771 174.032 567.483 174.32C567.227 174.576 566.795 174.704 566.187 174.704H556.539C555.547 174.704 554.811 174.912 554.331 175.328C553.851 175.712 553.611 176.304 553.611 177.104V188.528C553.611 189.328 553.851 189.92 554.331 190.304C554.811 190.656 555.547 190.832 556.539 190.832H566.187C566.795 190.832 567.227 190.976 567.483 191.264C567.771 191.52 567.915 191.952 567.915 192.56V198.272C567.915 198.88 567.771 199.328 567.483 199.616C567.227 199.872 566.795 200 566.187 200ZM597.335 200H575.063C574.455 200 574.007 199.872 573.719 199.616C573.463 199.328 573.335 198.88 573.335 198.272V167.168C573.335 166.56 573.463 166.128 573.719 165.872C574.007 165.584 574.455 165.44 575.063 165.44H597.335C597.943 165.44 598.375 165.584 598.631 165.872C598.919 166.128 599.063 166.56 599.063 167.168V172.784C599.063 173.392 598.919 173.84 598.631 174.128C598.375 174.384 597.943 174.512 597.335 174.512H584.087V178.208H593.447C594.055 178.208 594.487 178.352 594.743 178.64C595.031 178.896 595.175 179.328 595.175 179.936V185.072C595.175 185.68 595.031 186.128 594.743 186.416C594.487 186.672 594.055 186.8 593.447 186.8H584.087V190.928H597.335C597.943 190.928 598.375 191.072 598.631 191.36C598.919 191.616 599.063 192.048 599.063 192.656V198.272C599.063 198.88 598.919 199.328 598.631 199.616C598.375 199.872 597.943 200 597.335 200ZM624.691 200H617.251C616.643 200 616.195 199.872 615.907 199.616C615.651 199.328 615.523 198.88 615.523 198.272V167.168C615.523 166.56 615.651 166.128 615.907 165.872C616.195 165.584 616.643 165.44 617.251 165.44H631.939C636.291 165.44 639.267 166.304 640.867 168.032C642.467 169.76 643.267 172.016 643.267 174.8V180.944C643.267 183.728 642.467 185.984 640.867 187.712C639.267 189.44 636.291 190.304 631.939 190.304H626.419V198.272C626.419 198.88 626.275 199.328 625.987 199.616C625.731 199.872 625.299 200 624.691 200ZM626.323 174.416V181.664H630.643C631.571 181.664 632.179 181.424 632.467 180.944C632.755 180.464 632.899 179.92 632.899 179.312V176.768C632.899 176.16 632.755 175.616 632.467 175.136C632.179 174.656 631.571 174.416 630.643 174.416H626.323ZM659.09 174.08V180.224H662.69C663.522 180.224 664.082 180.016 664.37 179.6C664.658 179.152 664.802 178.608 664.802 177.968V176.336C664.802 175.696 664.658 175.168 664.37 174.752C664.082 174.304 663.522 174.08 662.69 174.08H659.09ZM657.362 200H649.97C649.362 200 648.914 199.872 648.626 199.616C648.37 199.328 648.242 198.88 648.242 198.272V167.168C648.242 166.56 648.37 166.128 648.626 165.872C648.914 165.584 649.362 165.44 649.97 165.44H665.954C669.538 165.44 672.002 166.192 673.346 167.696C674.722 169.168 675.41 171.088 675.41 173.456V175.664C675.41 177.008 675.202 178.16 674.786 179.12C674.402 180.048 673.714 180.72 672.722 181.136C674.45 181.328 675.842 182.032 676.898 183.248C677.986 184.464 678.53 186.08 678.53 188.096V198.272C678.53 198.88 678.386 199.328 678.098 199.616C677.842 199.872 677.41 200 676.802 200H669.362C668.754 200 668.306 199.872 668.018 199.616C667.762 199.328 667.634 198.88 667.634 198.272V190.928C667.634 190.224 667.49 189.712 667.202 189.392C666.946 189.04 666.482 188.864 665.81 188.864H659.09V198.272C659.09 198.88 658.946 199.328 658.658 199.616C658.402 199.872 657.97 200 657.362 200ZM712.959 190.928C712.959 192.4 712.735 193.744 712.287 194.96C711.871 196.144 711.103 197.168 709.983 198.032C708.895 198.864 707.375 199.52 705.423 200C703.503 200.48 701.055 200.72 698.079 200.72C695.103 200.72 692.639 200.48 690.687 200C688.735 199.52 687.199 198.864 686.079 198.032C684.991 197.168 684.223 196.144 683.775 194.96C683.359 193.744 683.151 192.4 683.151 190.928V174.56C683.151 173.088 683.359 171.76 683.775 170.576C684.223 169.36 684.991 168.32 686.079 167.456C687.199 166.592 688.735 165.92 690.687 165.44C692.639 164.96 695.103 164.72 698.079 164.72C701.055 164.72 703.503 164.96 705.423 165.44C707.375 165.92 708.895 166.592 709.983 167.456C711.103 168.32 711.871 169.36 712.287 170.576C712.735 171.76 712.959 173.088 712.959 174.56V190.928ZM694.047 189.2C694.047 189.84 694.287 190.384 694.767 190.832C695.247 191.248 696.351 191.456 698.079 191.456C699.807 191.456 700.911 191.248 701.391 190.832C701.871 190.384 702.111 189.84 702.111 189.2V176.288C702.111 175.68 701.871 175.168 701.391 174.752C700.911 174.304 699.807 174.08 698.079 174.08C696.351 174.08 695.247 174.304 694.767 174.752C694.287 175.168 694.047 175.68 694.047 176.288V189.2ZM745.71 190.928C745.71 192.4 745.502 193.744 745.086 194.96C744.67 196.144 743.934 197.168 742.878 198.032C741.854 198.864 740.43 199.52 738.606 200C736.782 200.48 734.462 200.72 731.646 200.72C728.862 200.72 726.558 200.48 724.734 200C722.942 199.52 721.518 198.864 720.462 198.032C719.438 197.168 718.718 196.144 718.302 194.96C717.918 193.744 717.726 192.4 717.726 190.928V183.152C717.726 182.544 717.854 182.112 718.11 181.856C718.398 181.568 718.846 181.424 719.454 181.424H726.414C727.022 181.424 727.454 181.568 727.71 181.856C727.998 182.112 728.142 182.544 728.142 183.152V189.008C728.142 189.648 728.334 190.192 728.718 190.64C729.134 191.056 730.078 191.264 731.55 191.264C732.926 191.264 733.79 191.056 734.142 190.64C734.526 190.192 734.718 189.648 734.718 189.008V167.168C734.718 166.56 734.846 166.128 735.102 165.872C735.39 165.584 735.838 165.44 736.446 165.44H743.982C744.59 165.44 745.022 165.584 745.278 165.872C745.566 166.128 745.71 166.56 745.71 167.168V190.928ZM776.117 200H753.845C753.237 200 752.789 199.872 752.501 199.616C752.245 199.328 752.117 198.88 752.117 198.272V167.168C752.117 166.56 752.245 166.128 752.501 165.872C752.789 165.584 753.237 165.44 753.845 165.44H776.117C776.725 165.44 777.157 165.584 777.413 165.872C777.701 166.128 777.845 166.56 777.845 167.168V172.784C777.845 173.392 777.701 173.84 777.413 174.128C777.157 174.384 776.725 174.512 776.117 174.512H762.869V178.208H772.229C772.837 178.208 773.269 178.352 773.525 178.64C773.813 178.896 773.957 179.328 773.957 179.936V185.072C773.957 185.68 773.813 186.128 773.525 186.416C773.269 186.672 772.837 186.8 772.229 186.8H762.869V190.928H776.117C776.725 190.928 777.157 191.072 777.413 191.36C777.701 191.616 777.845 192.048 777.845 192.656V198.272C777.845 198.88 777.701 199.328 777.413 199.616C777.157 199.872 776.725 200 776.117 200ZM806.28 200H794.568C790.568 200 787.592 199.2 785.64 197.6C783.72 196 782.76 193.536 782.76 190.208V175.28C782.76 171.952 783.72 169.488 785.64 167.888C787.592 166.256 790.568 165.44 794.568 165.44H806.28C806.888 165.44 807.32 165.584 807.576 165.872C807.864 166.128 808.008 166.56 808.008 167.168V172.976C808.008 173.584 807.864 174.032 807.576 174.32C807.32 174.576 806.888 174.704 806.28 174.704H796.632C795.64 174.704 794.904 174.912 794.424 175.328C793.944 175.712 793.704 176.304 793.704 177.104V188.528C793.704 189.328 793.944 189.92 794.424 190.304C794.904 190.656 795.64 190.832 796.632 190.832H806.28C806.888 190.832 807.32 190.976 807.576 191.264C807.864 191.52 808.008 191.952 808.008 192.56V198.272C808.008 198.88 807.864 199.328 807.576 199.616C807.32 199.872 806.888 200 806.28 200ZM829.749 200H821.973C821.365 200 820.917 199.872 820.629 199.616C820.373 199.328 820.245 198.88 820.245 198.272V174.704H813.189C812.581 174.704 812.133 174.576 811.845 174.32C811.589 174.032 811.461 173.584 811.461 172.976V167.168C811.461 166.56 811.589 166.128 811.845 165.872C812.133 165.584 812.581 165.44 813.189 165.44H838.533C839.141 165.44 839.573 165.584 839.829 165.872C840.117 166.128 840.261 166.56 840.261 167.168V172.976C840.261 173.584 840.117 174.032 839.829 174.32C839.573 174.576 839.141 174.704 838.533 174.704H831.477V198.272C831.477 198.88 831.333 199.328 831.045 199.616C830.789 199.872 830.357 200 829.749 200ZM864.41 200H856.97C856.362 200 855.914 199.872 855.626 199.616C855.37 199.328 855.242 198.88 855.242 198.272V167.168C855.242 166.56 855.37 166.128 855.626 165.872C855.914 165.584 856.362 165.44 856.97 165.44H878.378C878.986 165.44 879.418 165.584 879.674 165.872C879.962 166.128 880.106 166.56 880.106 167.168V172.88C880.106 173.488 879.962 173.936 879.674 174.224C879.418 174.48 878.986 174.608 878.378 174.608H866.138V179.6H874.49C875.098 179.6 875.53 179.744 875.786 180.032C876.074 180.288 876.218 180.72 876.218 181.328V187.088C876.218 187.696 876.074 188.144 875.786 188.432C875.53 188.688 875.098 188.816 874.49 188.816H866.138V198.272C866.138 198.88 865.994 199.328 865.706 199.616C865.45 199.872 865.018 200 864.41 200ZM913.959 190.928C913.959 192.4 913.735 193.744 913.287 194.96C912.871 196.144 912.103 197.168 910.983 198.032C909.895 198.864 908.375 199.52 906.423 200C904.503 200.48 902.055 200.72 899.079 200.72C896.103 200.72 893.639 200.48 891.687 200C889.735 199.52 888.199 198.864 887.079 198.032C885.991 197.168 885.223 196.144 884.775 194.96C884.359 193.744 884.151 192.4 884.151 190.928V174.56C884.151 173.088 884.359 171.76 884.775 170.576C885.223 169.36 885.991 168.32 887.079 167.456C888.199 166.592 889.735 165.92 891.687 165.44C893.639 164.96 896.103 164.72 899.079 164.72C902.055 164.72 904.503 164.96 906.423 165.44C908.375 165.92 909.895 166.592 910.983 167.456C912.103 168.32 912.871 169.36 913.287 170.576C913.735 171.76 913.959 173.088 913.959 174.56V190.928ZM895.047 189.2C895.047 189.84 895.287 190.384 895.767 190.832C896.247 191.248 897.351 191.456 899.079 191.456C900.807 191.456 901.911 191.248 902.391 190.832C902.871 190.384 903.111 189.84 903.111 189.2V176.288C903.111 175.68 902.871 175.168 902.391 174.752C901.911 174.304 900.807 174.08 899.079 174.08C897.351 174.08 896.247 174.304 895.767 174.752C895.287 175.168 895.047 175.68 895.047 176.288V189.2ZM930.918 174.08V180.224H934.518C935.35 180.224 935.91 180.016 936.198 179.6C936.486 179.152 936.63 178.608 936.63 177.968V176.336C936.63 175.696 936.486 175.168 936.198 174.752C935.91 174.304 935.35 174.08 934.518 174.08H930.918ZM929.19 200H921.798C921.19 200 920.742 199.872 920.454 199.616C920.198 199.328 920.07 198.88 920.07 198.272V167.168C920.07 166.56 920.198 166.128 920.454 165.872C920.742 165.584 921.19 165.44 921.798 165.44H937.782C941.366 165.44 943.83 166.192 945.174 167.696C946.55 169.168 947.238 171.088 947.238 173.456V175.664C947.238 177.008 947.03 178.16 946.614 179.12C946.23 180.048 945.542 180.72 944.55 181.136C946.278 181.328 947.67 182.032 948.726 183.248C949.814 184.464 950.358 186.08 950.358 188.096V198.272C950.358 198.88 950.214 199.328 949.926 199.616C949.67 199.872 949.238 200 948.63 200H941.19C940.582 200 940.134 199.872 939.846 199.616C939.59 199.328 939.462 198.88 939.462 198.272V190.928C939.462 190.224 939.318 189.712 939.03 189.392C938.774 189.04 938.31 188.864 937.638 188.864H930.918V198.272C930.918 198.88 930.774 199.328 930.486 199.616C930.23 199.872 929.798 200 929.19 200ZM983.083 191.984H974.971C971.867 191.984 969.627 191.344 968.251 190.064C966.907 188.752 966.235 186.736 966.235 184.016V167.168C966.235 166.56 966.363 166.128 966.619 165.872C966.907 165.584 967.355 165.44 967.963 165.44H975.403C976.011 165.44 976.443 165.584 976.699 165.872C976.987 166.128 977.131 166.56 977.131 167.168V180.32C977.131 180.832 977.259 181.232 977.515 181.52C977.803 181.808 978.171 181.952 978.619 181.952H983.083V167.168C983.083 166.56 983.211 166.128 983.467 165.872C983.755 165.584 984.203 165.44 984.811 165.44H992.203C992.811 165.44 993.243 165.584 993.499 165.872C993.787 166.128 993.931 166.56 993.931 167.168V198.272C993.931 198.88 993.787 199.328 993.499 199.616C993.243 199.872 992.811 200 992.203 200H984.811C984.203 200 983.755 199.872 983.467 199.616C983.211 199.328 983.083 198.88 983.083 198.272V191.984ZM1023.74 200H1000.89C1000.28 200 999.834 199.872 999.546 199.616C999.29 199.328 999.162 198.88 999.162 198.272V190.016C999.162 188.16 999.338 186.64 999.69 185.456C1000.07 184.24 1000.6 183.248 1001.27 182.48C1001.95 181.712 1002.75 181.104 1003.67 180.656C1004.6 180.208 1005.61 179.824 1006.7 179.504L1013.13 177.488C1013.64 177.36 1013.98 177.168 1014.14 176.912C1014.33 176.656 1014.43 176.272 1014.43 175.76C1014.43 175.28 1014.33 174.96 1014.14 174.8C1013.95 174.608 1013.61 174.512 1013.13 174.512H1002.71C1002.11 174.512 1001.66 174.384 1001.37 174.128C1001.11 173.84 1000.99 173.392 1000.99 172.784V167.168C1000.99 166.56 1001.11 166.128 1001.37 165.872C1001.66 165.584 1002.11 165.44 1002.71 165.44H1016.87C1019.59 165.44 1021.67 166.128 1023.11 167.504C1024.59 168.848 1025.32 170.816 1025.32 173.408V177.92C1025.32 180.32 1024.65 182.16 1023.31 183.44C1021.96 184.72 1020.14 185.712 1017.83 186.416L1011.31 188.48C1010.83 188.608 1010.49 188.752 1010.3 188.912C1010.14 189.072 1010.06 189.408 1010.06 189.92V190.928H1023.74C1024.35 190.928 1024.78 191.072 1025.03 191.36C1025.32 191.616 1025.47 192.048 1025.47 192.656V198.272C1025.47 198.88 1025.32 199.328 1025.03 199.616C1024.78 199.872 1024.35 200 1023.74 200Z" fill="#FFC149"/>
</g>
<g filter="url(#filter1_d_209_32)">
<path d="M448.566 92H431.826C430.458 92 429.45 91.712 428.802 91.136C428.226 90.488 427.938 89.48 427.938 88.112V18.128C427.938 16.76 428.226 15.788 428.802 15.212C429.45 14.564 430.458 14.24 431.826 14.24H464.874C474.666 14.24 481.362 16.184 484.962 20.072C488.562 23.96 490.362 29.036 490.362 35.3V49.124C490.362 55.388 488.562 60.464 484.962 64.352C481.362 68.24 474.666 70.184 464.874 70.184H452.454V88.112C452.454 89.48 452.13 90.488 451.482 91.136C450.906 91.712 449.934 92 448.566 92ZM452.238 34.436V50.744H461.958C464.046 50.744 465.414 50.204 466.062 49.124C466.71 48.044 467.034 46.82 467.034 45.452V39.728C467.034 38.36 466.71 37.136 466.062 36.056C465.414 34.976 464.046 34.436 461.958 34.436H452.238ZM567.435 71.588C567.435 74.9 566.931 77.924 565.923 80.66C564.987 83.324 563.259 85.628 560.739 87.572C558.291 89.444 554.871 90.92 550.479 92C546.159 93.08 540.651 93.62 533.955 93.62C527.259 93.62 521.715 93.08 517.323 92C512.931 90.92 509.475 89.444 506.955 87.572C504.507 85.628 502.779 83.324 501.771 80.66C500.835 77.924 500.367 74.9 500.367 71.588V34.76C500.367 31.448 500.835 28.46 501.771 25.796C502.779 23.06 504.507 20.72 506.955 18.776C509.475 16.832 512.931 15.32 517.323 14.24C521.715 13.16 527.259 12.62 533.955 12.62C540.651 12.62 546.159 13.16 550.479 14.24C554.871 15.32 558.291 16.832 560.739 18.776C563.259 20.72 564.987 23.06 565.923 25.796C566.931 28.46 567.435 31.448 567.435 34.76V71.588ZM524.883 67.7C524.883 69.14 525.423 70.364 526.503 71.372C527.583 72.308 530.067 72.776 533.955 72.776C537.843 72.776 540.327 72.308 541.407 71.372C542.487 70.364 543.027 69.14 543.027 67.7V38.648C543.027 37.28 542.487 36.128 541.407 35.192C540.327 34.184 537.843 33.68 533.955 33.68C530.067 33.68 527.583 34.184 526.503 35.192C525.423 36.128 524.883 37.28 524.883 38.648V67.7ZM601.272 92H585.072C583.704 92 582.696 91.712 582.048 91.136C581.472 90.488 581.184 89.48 581.184 88.112V18.128C581.184 16.76 581.472 15.788 582.048 15.212C582.696 14.564 583.704 14.24 585.072 14.24H596.304C597.672 14.24 598.824 14.456 599.76 14.888C600.768 15.32 601.74 16.076 602.676 17.156L623.628 41.132V18.128C623.628 16.76 623.916 15.788 624.492 15.212C625.14 14.564 626.148 14.24 627.516 14.24H643.716C645.084 14.24 646.056 14.564 646.632 15.212C647.28 15.788 647.604 16.76 647.604 18.128V88.112C647.604 89.48 647.28 90.488 646.632 91.136C646.056 91.712 645.084 92 643.716 92H627.516C626.148 92 625.14 91.712 624.492 91.136C623.916 90.488 623.628 89.48 623.628 88.112V74.828L605.16 52.472V88.112C605.16 89.48 604.836 90.488 604.188 91.136C603.612 91.712 602.64 92 601.272 92ZM721.901 92H687.881C678.881 92 672.185 90.2 667.793 86.6C663.473 83 661.313 77.456 661.313 69.968V36.272C661.313 28.784 663.473 23.24 667.793 19.64C672.185 16.04 678.881 14.24 687.881 14.24H714.881C716.249 14.24 717.221 14.564 717.797 15.212C718.445 15.788 718.769 16.76 718.769 18.128V31.196C718.769 32.564 718.445 33.572 717.797 34.22C717.221 34.796 716.249 35.084 714.881 35.084H692.417C690.185 35.084 688.529 35.552 687.449 36.488C686.369 37.352 685.829 38.684 685.829 40.484V66.296C685.829 68.096 686.225 69.428 687.017 70.292C687.881 71.156 689.141 71.588 690.797 71.588H701.273V54.74C701.273 53.372 701.561 52.4 702.137 51.824C702.785 51.176 703.793 50.852 705.161 50.852H721.901C723.269 50.852 724.241 51.176 724.817 51.824C725.465 52.4 725.789 53.372 725.789 54.74V88.112C725.789 89.48 725.465 90.488 724.817 91.136C724.241 91.712 723.269 92 721.901 92Z" fill="#FFC149"/>
</g>
<path d="M1138 135H14V137H1138V135Z" fill="url(#paint0_linear_209_32)"/>
<defs>
<filter id="filter0_d_209_32" x="126.694" y="164.72" width="898.772" height="42" filterUnits="userSpaceOnUse" color-interpolation-filters="sRGB">
<feFlood flood-opacity="0" result="BackgroundImageFix"/>
<feColorMatrix in="SourceAlpha" type="matrix" values="0 0 0 0 0 0 0 0 0 0 0 0 0 0 0 0 0 0 127 0" result="hardAlpha"/>
<feOffset dy="6"/>
<feComposite in2="hardAlpha" operator="out"/>
<feColorMatrix type="matrix" values="0 0 0 0 0.0588235 0 0 0 0 0.639216 0 0 0 0 0.694118 0 0 0 1 0"/>
<feBlend mode="normal" in2="BackgroundImageFix" result="effect1_dropShadow_209_32"/>
<feBlend mode="normal" in="SourceGraphic" in2="effect1_dropShadow_209_32" result="shape"/>
</filter>
<filter id="filter1_d_209_32" x="427.938" y="0.619998" width="297.851" height="93" filterUnits="userSpaceOnUse" color-interpolation-filters="sRGB">
<feFlood flood-opacity="0" result="BackgroundImageFix"/>
<feColorMatrix in="SourceAlpha" type="matrix" values="0 0 0 0 0 0 0 0 0 0 0 0 0 0 0 0 0 0 127 0" result="hardAlpha"/>
<feOffset dy="-12"/>
<feComposite in2="hardAlpha" operator="out"/>
<feColorMatrix type="matrix" values="0 0 0 0 0.569522 0 0 0 0 0.24967 0 0 0 0 0.820833 0 0 0 1 0"/>
<feBlend mode="normal" in2="BackgroundImageFix" result="effect1_dropShadow_209_32"/>
<feBlend mode="normal" in="SourceGraphic" in2="effect1_dropShadow_209_32" result="shape"/>
</filter>
<linearGradient id="paint0_linear_209_32" x1="14" y1="136" x2="1138" y2="136" gradientUnits="userSpaceOnUse">
<stop stop-color="#F08538"/>
<stop offset="1" stop-color="#FFC149"/>
</linearGradient>
</defs>
</svg>
