<svg width="64" height="64" viewBox="0 0 64 64" fill="none" xmlns="http://www.w3.org/2000/svg">
<path d="M50.6676 8.00024H13.3343C10.3888 8.00024 8.00098 10.3881 8.00098 13.3336V50.6669C8.00098 53.6124 10.3888 56.0003 13.3343 56.0003H50.6676C53.6132 56.0003 56.001 53.6124 56.001 50.6669V13.3336C56.001 10.3881 53.6132 8.00024 50.6676 8.00024Z" stroke="#362D25" stroke-width="6" stroke-linecap="round" stroke-linejoin="round"/>
<path d="M32 34.6665C36.4183 34.6665 40 31.0848 40 26.6665C40 22.2482 36.4183 18.6665 32 18.6665C27.5817 18.6665 24 22.2482 24 26.6665C24 31.0848 27.5817 34.6665 32 34.6665Z" stroke="#362D25" stroke-width="6" stroke-linecap="round" stroke-linejoin="round"/>
<path d="M18.668 55.9999V50.6666C18.668 49.2521 19.2299 47.8955 20.2301 46.8954C21.2303 45.8952 22.5868 45.3333 24.0013 45.3333H40.0013C41.4158 45.3333 42.7723 45.8952 43.7725 46.8954C44.7727 47.8955 45.3346 49.2521 45.3346 50.6666V55.9999" stroke="#362D25" stroke-width="6" stroke-linecap="round" stroke-linejoin="round"/>
</svg>
